<?xml version="1.0" encoding="UTF-8"?>
<svg width="212px" height="40px" viewBox="0 0 212 40" version="1.1" xmlns="http://www.w3.org/2000/svg" xmlns:xlink="http://www.w3.org/1999/xlink">
    <title>A357321F-3CBE-4F59-914F-E617ADB5E190</title>
    <g id="Page-1" stroke="none" stroke-width="1" fill="none" fill-rule="evenodd">
        <g id="Home-Page-v1.3" transform="translate(-200.000000, -6134.000000)">
            <g id="Footer" transform="translate(0.000000, 6078.000000)">
                <g id="logo-footer" transform="translate(200.000000, 56.000000)">
                    <line x1="26" y1="1" x2="26" y2="40" id="Path" stroke="#FFFFFF"></line>
                    <g id="tZgJCi.tif" transform="translate(0.000000, 1.000000)" fill="#FFFFFF" fill-rule="nonzero">
                        <g id="Group">
                            <path d="M22.9960444,39 C19.7841261,39 16.5722077,39 13.3602893,39 C13.3207337,39 13.2772225,39 13.2376668,39 C13.0280219,38.9921859 13.000333,38.9531156 13.0438442,38.757764 C13.2060223,38.0662192 13.7677125,37.562212 14.5113586,37.5856542 C14.9306484,37.5973753 15.3499383,37.5856542 15.7692281,37.5856542 C15.9551396,37.5856542 16.0144731,37.5231417 16.0105175,37.3316971 C16.006562,37.0113204 16.0026064,36.6909437 16.006562,36.370567 C16.006562,36.1439591 16.0817177,36.0775396 16.315096,36.0775396 C17.3554095,36.0775396 18.3957229,36.0775396 19.4360364,36.0775396 C19.7089703,36.0775396 19.7366593,36.0423763 19.7327037,35.7806051 C19.7287482,35.526648 19.7247926,35.2726908 19.7327037,35.0187337 C19.748526,34.6866359 19.811815,34.6280305 20.1519936,34.6280305 C20.4882165,34.6280305 20.8283951,34.6280305 21.1646181,34.6280305 C21.4454632,34.6280305 21.465241,34.6084953 21.465241,34.331096 C21.465241,31.2953316 21.4731521,28.2595672 21.465241,25.2238028 C21.465241,25.005009 21.5443523,24.887798 21.7302638,24.8135644 C21.9240865,24.7354238 21.9952866,24.6025847 21.9952866,24.3955119 C21.9913311,20.7072731 21.9952866,17.0151272 21.9952866,13.3268884 C21.9952866,13.154979 21.928042,13.0533961 21.7777306,12.9596273 C21.2002182,12.5806452 20.5673278,12.318874 19.9146597,12.1235223 C18.9771909,11.842216 18.0120332,11.6859347 17.0270976,11.6859347 C16.4733186,11.6859347 15.9195396,11.6976558 15.3657605,11.7054698 C15.2945604,11.7054698 15.2273158,11.7054698 15.1600712,11.6781206 C17.4622097,11.1780204 19.7327037,11.1467642 21.9359532,12.2251052 C21.9596865,12.1313364 21.9873755,12.0610098 21.9913311,11.9867762 C21.9952866,11.6742136 21.9794644,11.3577439 21.9913311,11.0451813 C21.9992422,10.8615508 21.9201309,10.7951312 21.7500416,10.7795031 C21.0499067,10.7169906 20.3537274,10.6154077 19.6535924,10.5880585 C18.3917674,10.5411741 17.1259867,10.525546 15.8720728,10.7052695 C14.9504263,10.8381086 14.0485576,11.0569024 13.2099779,11.4749549 C12.7748658,11.6937487 12.355576,11.9555199 11.9085972,12.1469645 C10.6349054,12.6978561 9.30583573,12.9791625 7.90952146,12.8150671 C7.02743058,12.7095772 6.2125843,12.4087357 5.52036051,11.8344019 C5.03778164,11.4358846 4.68178084,10.9396914 4.40884689,10.3848928 C4.34951342,10.2676818 4.28226883,10.1504708 4.21897979,10.0332599 C4.04097939,9.70506912 4.10031286,9.32999399 4.38115794,9.00180325 C4.59080286,8.75956722 5.01800382,8.65017031 5.32653785,8.75566019 C5.88822801,8.95101182 6.11765075,9.38859948 5.93965035,9.94730515 C5.88031688,10.1348427 5.95547261,10.2168904 6.10578406,10.291124 C6.86129687,10.6622921 7.66427647,10.8302945 8.5068117,10.8381086 C8.86281251,10.8381086 9.21881331,10.8381086 9.59459194,10.8381086 C9.56294742,10.8615508 9.53130291,10.9045282 9.49174726,10.9162492 C8.52658953,11.1623923 7.55352066,11.2835103 6.57254067,11.0412743 C6.18489535,10.9475055 5.81307228,10.7795031 5.44520479,10.6232218 C5.26324882,10.5450811 5.10107068,10.5607093 4.90329245,10.6075937 C5.14458189,10.9123422 5.46498261,11.0569024 5.77351664,11.2014626 C6.72285212,11.6468644 7.71965437,11.6820276 8.74019001,11.5023041 C9.56690299,11.3577439 10.3421936,11.0569024 11.1135287,10.7404328 C11.7345523,10.4864757 12.3713982,10.2754959 13.000333,10.048888 C13.5303786,9.8574434 14.0604242,9.6659988 14.5944255,9.4862753 C14.9306484,9.37297135 15.2747825,9.2713885 15.6189167,9.18543378 C16.2715848,9.02133841 16.9242529,8.85724304 17.5848322,8.72440393 C18.0674111,8.62672811 18.5579011,8.56812262 19.0444355,8.5173312 C19.8434595,8.43919054 20.6424836,8.36495692 21.4454632,8.32197956 C22.1020869,8.28681627 21.9755088,8.36104989 21.9834199,7.76327389 C21.9834199,7.50931677 21.9755088,7.49759567 21.7025748,7.49759567 C21.5206189,7.49759567 21.465241,7.42336205 21.4691965,7.25926668 C21.4731521,6.79823683 21.4691965,6.33720697 21.4691965,5.88008415 C21.4691965,5.70426768 21.5324856,5.61831296 21.7223527,5.63003406 C21.8845308,5.64175516 21.955731,5.57142857 21.9438643,5.40342617 C21.9319976,5.25105189 21.9478198,5.09867762 21.9438643,4.94239631 C21.9399087,4.78611501 21.9952866,4.69625326 22.1653759,4.71188139 C22.3235985,4.72750952 22.3829319,4.6298337 22.3987542,4.49699459 C22.4818211,3.76247245 22.5648879,3.02795031 22.6558659,2.29342817 C22.6795993,2.1176117 22.6083991,2.02384292 22.4620432,1.94570226 C22.0743979,1.73862953 21.864753,1.29713484 21.9438643,0.886896414 C22.0387978,0.390703266 22.355243,0.0820476858 22.8378219,0.011721098 C22.8931998,0.00390703266 22.9485777,0 23,0 L23,39 L22.9960444,39 Z" id="Path"></path>
                            <path d="M10.0850819,16.4251653 C10.1918822,16.6674013 10.3065935,16.9096373 10.4054827,17.1557804 C10.5597497,17.5347626 10.7061056,17.9176518 10.8603726,18.2966339 C11.0067285,18.659988 11.1570399,19.019435 11.3073514,19.382789 C11.5525964,19.972751 11.7978414,20.5627129 12.0391308,21.1526748 C12.2725091,21.7231016 12.4979763,22.2974354 12.7313546,22.8717692 C12.9607773,23.4382889 13.1981112,24.0048087 13.4314895,24.5713284 C13.7162901,25.2667802 13.9971352,25.962232 14.2779803,26.6576838 C14.444114,27.0640152 14.5509142,27.513324 14.8001148,27.8610499 C15.0690932,28.228311 14.8396705,28.4588259 14.7012257,28.7049689 C14.1237133,29.7247045 13.217889,30.381086 12.1775756,30.8890002 C11.437885,31.2523542 10.6625944,31.4906832 9.85565919,31.6625927 C8.68876767,31.9126428 7.51396502,31.9634342 6.33125123,31.8501302 C5.58760511,31.7798036 4.85582568,31.6352434 4.13591294,31.4125426 C3.34084448,31.1663995 2.58928722,30.8382088 1.901019,30.381086 C1.09803941,29.8497295 0.449326834,29.1816269 0.0616815135,28.2908235 C-0.0134742118,28.115007 -0.0213853408,27.9470046 0.0458592555,27.7672811 C0.346482157,26.9936886 0.639193929,26.2161891 0.939816831,25.4425967 C1.26417312,24.6143058 1.59644054,23.7860148 1.91684126,22.9538169 C2.15417513,22.3404127 2.37568674,21.7191946 2.61302061,21.1057904 C2.93342133,20.2814065 3.26568875,19.4609297 3.58608948,18.6365458 C3.77991214,18.1325386 3.9618681,17.6246243 4.1517352,17.1206171 C4.32578004,16.6634943 4.49982487,16.2063715 4.68178084,15.7531557 C4.72529205,15.6398517 4.79253665,15.5343619 4.88351463,15.428872 C4.82418116,15.6359447 4.76880326,15.8430174 4.70551423,16.0461831 C4.59871399,16.393909 4.48400262,16.7377279 4.37324681,17.0854538 C4.27040213,17.4097375 4.16755746,17.7301142 4.06471278,18.0543979 C3.91044576,18.542777 3.75617875,19.0311561 3.59795617,19.5156281 C3.44764472,19.984472 3.2933777,20.4494089 3.14306625,20.9182529 C2.99671037,21.3675616 2.85431004,21.8168704 2.70795416,22.2661791 C2.5022648,22.8991184 2.29657545,23.5320577 2.09484166,24.164997 C1.90497457,24.76668 1.7230186,25.3722701 1.52919594,25.9739531 C1.34328441,26.556101 1.14946175,27.1343418 0.955639089,27.7164897 C0.876527799,27.9470046 0.908172315,28.0056101 1.13759506,28.0056101 C2.90177682,28.0056101 4.66200302,28.0017031 6.42618478,27.993889 C6.70702986,27.993889 6.70307429,27.9821679 6.71889655,27.7125826 C6.79405228,26.5014025 6.87711913,25.2902224 6.94436373,24.0790423 C7.05116397,22.2349229 7.14609752,20.3908034 7.24894219,18.546684 C7.28849784,17.8356041 7.34387574,17.1245241 7.4150759,16.4056301 C7.4269426,16.507213 7.44672042,16.6087958 7.44672042,16.7142857 C7.45067598,18.8006412 7.45858711,20.8909036 7.45858711,22.9772591 C7.45858711,24.5791425 7.45858711,26.1810258 7.45463155,27.7829092 C7.45463155,27.9430976 7.52583171,28.0056101 7.66823203,28.0095171 C7.8383213,28.0134242 8.00445501,28.0095171 8.17454429,28.0095171 C9.966415,28.0095171 11.7543302,28.0095171 13.5462009,28.0095171 C13.6134455,28.0095171 13.6806901,28.0095171 13.7479347,28.0017031 C13.8745127,27.989982 13.9101128,27.9196554 13.8705572,27.8063514 C13.6806901,27.2593669 13.4868674,26.7162893 13.3009559,26.1653977 C13.1150443,25.6184131 12.9370439,25.0675215 12.7511324,24.520537 C12.600821,24.0790423 12.4505095,23.6414546 12.2962425,23.1999599 C12.1380199,22.7428371 11.9837529,22.2818073 11.8255303,21.8246844 C11.6317077,21.2659788 11.437885,20.7072731 11.2480179,20.1446604 C11.0581508,19.5859547 10.8761948,19.019435 10.6863277,18.4607293 C10.5320607,18.0036065 10.365927,17.5464837 10.21166,17.0893608 C10.1365043,16.8744741 10.0771708,16.6517732 10.0099262,16.4329794 C10.029704,16.4290723 10.0534374,16.4212583 10.0732152,16.4173512 L10.0850819,16.4251653 Z" id="Path"></path>
                        </g>
                    </g>
                    <g id="Group" transform="translate(31.000000, 0.000000)" fill="#FFFFFF" fill-rule="nonzero">
                        <path d="M7.27584627,8.01660243 L13.5686835,14.2820437 C14.5990665,15.3137662 15.4833799,16.021346 16.213728,16.3929242 C16.9440761,16.7684554 17.6744242,16.9779622 18.4047723,17.0293507 L18.4047723,17.4958 L10.2840909,17.4958 L10.2840909,17.0293507 C10.7696737,17.0293507 11.1210304,16.9463386 11.3342131,16.7842672 C11.5473957,16.6221959 11.6539871,16.4364068 11.6539871,16.2348058 C11.6539871,16.0332049 11.6145088,15.8513687 11.5355523,15.6932503 C11.4565957,15.5351319 11.1920913,15.234707 10.7499346,14.7998814 L4.85977578,8.96531278 L4.85977578,14.4717857 C4.85977578,15.3374839 4.91504537,15.9067101 5.02163671,16.1873703 C5.10454109,16.3968772 5.28219333,16.5787133 5.55064561,16.7289258 C5.90989792,16.9305267 6.2928372,17.0333037 6.69551562,17.0333037 L7.27584627,17.0333037 L7.27584627,17.4997529 L0,17.4997529 L0,17.0333037 L0.604017623,17.0333037 C1.31067876,17.0333037 1.81994853,16.8277498 2.13972256,16.416642 C2.34106177,16.1478407 2.44370529,15.4995553 2.44370529,14.4757387 L2.44370529,3.42721613 C2.44370529,2.56151794 2.3884357,1.98438581 2.28184436,1.6997727 C2.19893998,1.49817176 2.02523556,1.32028857 1.76467894,1.17007609 C1.39358314,0.968475146 1.01064387,0.865698192 0.607965451,0.865698192 L0.0039478276,0.865698192 L0.0039478276,0.403201897 L7.2797941,0.403201897 L7.2797941,0.869651151 L6.69946344,0.869651151 C6.30468068,0.869651151 5.92174141,0.964522186 5.55459344,1.15821722 C5.29403682,1.29261785 5.11243675,1.4942188 5.01374106,1.76302006 C4.91504537,2.03182133 4.86372361,2.5852357 4.86372361,3.42721613 L4.86372361,8.65698192 C5.02953237,8.49886352 5.6059152,7.96521395 6.58892427,7.0560332 C9.08000349,4.77122245 10.5880736,3.24537998 11.1091869,2.48245874 C11.3342131,2.14645716 11.4487001,1.85393814 11.4487001,1.60094871 C11.4487001,1.40725368 11.3618478,1.23727641 11.1841956,1.0910169 C11.0065434,0.944757387 10.7104563,0.869651151 10.2919866,0.869651151 L9.90115163,0.869651151 L9.90115163,0.403201897 L16.1703019,0.403201897 L16.1703019,0.869651151 C15.7992061,0.877557071 15.4636407,0.928945548 15.1636058,1.01986362 C14.8596231,1.1107817 14.4924751,1.29261785 14.0542663,1.55351319 C13.6160574,1.8183615 13.0791529,2.24528115 12.4435526,2.83427216 C12.2580047,3.00424943 11.4052739,3.8620417 9.88930815,5.41950786 L7.28374193,8.01660243 L7.27584627,8.01660243 Z" id="Path"></path>
                        <path d="M30.4495943,11.7719142 L23.8409309,11.7719142 L22.6842174,14.4678328 C22.3999738,15.13193 22.257852,15.62605 22.257852,15.9541457 C22.257852,16.215041 22.3802347,16.4443127 22.6289478,16.6419607 C22.877661,16.8396087 23.4106177,16.9661034 24.2357137,17.0253978 L24.2357137,17.491847 L18.8627203,17.491847 L18.8627203,17.0253978 C19.5772771,16.8989031 20.0391729,16.7368317 20.2484078,16.5352308 C20.6747732,16.1320289 21.1485125,15.3137662 21.6696257,14.0764898 L27.6663759,0.0118588793 L28.1085325,0.0118588793 L34.0500131,14.2306552 C34.5277002,15.3730606 34.9619613,16.116217 35.3527962,16.4561716 C35.7436311,16.7961261 36.2844835,16.9858682 36.983249,17.0293507 L36.983249,17.4958 L30.2482551,17.4958 L30.2482551,17.0293507 C30.9272815,16.997727 31.3891773,16.8830912 31.6260469,16.6893962 C31.8668644,16.4957012 31.9852992,16.2624765 31.9852992,15.9818164 C31.9852992,15.6102382 31.8155427,15.0291531 31.4799773,14.2306552 L30.4495943,11.7719142 L30.4495943,11.7719142 Z M30.0982377,10.8390157 L27.20448,3.93319498 L24.2357137,10.8390157 L30.1021855,10.8390157 L30.0982377,10.8390157 Z" id="Shape"></path>
                        <path d="M47.5357922,17.491847 L40.9389723,3.11097935 L40.9389723,14.5310801 C40.9389723,15.5825674 41.0534593,16.2387588 41.2784854,16.4957012 C41.5903638,16.8475146 42.0798944,17.0253978 42.7510251,17.0253978 L43.3550427,17.0253978 L43.3550427,17.491847 L37.4135622,17.491847 L37.4135622,17.0253978 L38.0175798,17.0253978 C38.7400323,17.0253978 39.249302,16.807985 39.5532848,16.3692064 C39.7388327,16.1004052 39.8296327,15.4876964 39.8296327,14.5310801 L39.8296327,3.36396877 C39.8296327,2.60895345 39.7467283,2.063445 39.5769717,1.72744342 C39.4585369,1.48235992 39.2414064,1.28075897 38.929528,1.11473466 C38.6137018,0.952663307 38.1083799,0.869651151 37.4135622,0.869651151 L37.4135622,0.403201897 L42.2457032,0.403201897 L48.4398447,13.7760648 L54.5352905,0.403201897 L59.3674315,0.403201897 L59.3674315,0.869651151 L58.7752574,0.869651151 C58.0449093,0.869651151 57.5277438,1.08706394 57.227709,1.52584247 C57.0421611,1.79464374 56.951361,2.40735251 56.951361,3.36396877 L56.951361,14.5310801 C56.951361,15.5825674 57.0697958,16.2387588 57.3027177,16.4957012 C57.6145961,16.8475146 58.1041267,17.0253978 58.7752574,17.0253978 L59.3674315,17.0253978 L59.3674315,17.491847 L52.1152722,17.491847 L52.1152722,17.0253978 L52.7192898,17.0253978 C53.4496379,17.0253978 53.9628555,16.807985 54.2549948,16.3692064 C54.4405427,16.1004052 54.5313427,15.4876964 54.5313427,14.5310801 L54.5313427,3.11097935 L47.9463663,17.491847 L47.5318444,17.491847 L47.5357922,17.491847 Z" id="Path"></path>
                        <path d="M76.8405165,17.491847 L72.2847234,17.491847 L66.5090516,9.50291531 C66.0826863,9.51872715 65.7313296,9.52663307 65.4628773,9.52663307 C65.3523382,9.52663307 65.2378512,9.52663307 65.1115207,9.51872715 C64.9851902,9.51477419 64.8549119,9.50686827 64.7206857,9.49896235 L64.7206857,14.4638798 C64.7206857,15.5390849 64.8391206,16.2071351 65.0720424,16.4680304 C65.3918164,16.8396087 65.8695036,17.0214448 66.5090516,17.0214448 L67.1762345,17.0214448 L67.1762345,17.4878941 L59.8648578,17.4878941 L59.8648578,17.0214448 L60.5083537,17.0214448 C61.2308061,17.0214448 61.7479716,16.7882202 62.0559021,16.313865 C62.2335544,16.0529697 62.3204066,15.4363079 62.3204066,14.4599269 L62.3204066,3.42721613 C62.3204066,2.35201107 62.2019717,1.68396087 61.9690499,1.42306552 C61.6413802,1.0514873 61.1557974,0.869651151 60.5083537,0.869651151 L59.8648578,0.869651151 L59.8648578,0.403201897 L66.0826863,0.403201897 C67.8947391,0.403201897 69.2330527,0.53364957 70.0936791,0.798497875 C70.9543055,1.06334618 71.6846536,1.54956023 72.2847234,2.26109299 C72.8847932,2.97262575 73.1848281,3.81855915 73.1848281,4.79889317 C73.1848281,5.85038047 72.8413671,6.75956122 72.158393,7.53434134 C71.4754188,8.30912145 70.4134531,8.8546299 68.9803917,9.17086669 L72.5058018,14.0725368 C73.3111586,15.1991303 74.0020284,15.9462397 74.5823591,16.317818 C75.1626898,16.6893962 75.9167248,16.9226208 76.8484121,17.0253978 L76.8484121,17.491847 L76.8405165,17.491847 Z M64.7206857,8.70837039 C64.8785988,8.70837039 65.0167728,8.70837039 65.1352076,8.71627631 C65.2536425,8.72022927 65.3483903,8.72418223 65.4233991,8.72418223 C67.049904,8.72418223 68.2776784,8.37236881 69.1067222,7.66478901 C69.9318182,6.95720921 70.3463401,6.05988734 70.3463401,4.96887044 C70.3463401,3.87785354 70.0107747,3.03587311 69.3475397,2.36782291 C68.6803568,1.6997727 67.7960434,1.36772408 66.6985474,1.36772408 C66.2129646,1.36772408 65.5536774,1.44678328 64.7206857,1.60885463 L64.7206857,8.70837039 Z" id="Shape"></path>
                        <path d="M88.9248168,11.7719142 L82.3161534,11.7719142 L81.1594399,14.4678328 C80.8751963,15.13193 80.7330745,15.62605 80.7330745,15.9541457 C80.7330745,16.215041 80.8554572,16.4443127 81.1041703,16.6419607 C81.3528834,16.8396087 81.8858402,16.9661034 82.7109361,17.0253978 L82.7109361,17.491847 L77.3379428,17.491847 L77.3379428,17.0253978 C78.0524996,16.8989031 78.5143954,16.7368317 78.7236303,16.5352308 C79.1499956,16.1320289 79.623735,15.3137662 80.1448482,14.0764898 L86.1415983,0.0118588793 L86.583755,0.0118588793 L92.5252356,14.2306552 C93.0029227,15.3730606 93.4371837,16.116217 93.8280187,16.4561716 C94.2188536,16.7961261 94.759706,16.9858682 95.4584715,17.0293507 L95.4584715,17.4958 L88.7234776,17.4958 L88.7234776,17.0293507 C89.4025039,16.997727 89.8643998,16.8830912 90.1012694,16.6893962 C90.3420869,16.4957012 90.4605217,16.2624765 90.4605217,15.9818164 C90.4605217,15.6102382 90.2907651,15.0291531 89.9551998,14.2306552 L88.9248168,11.7719142 L88.9248168,11.7719142 Z M88.5734601,10.8390157 L85.6797025,3.93319498 L82.7109361,10.8390157 L88.577408,10.8390157 L88.5734601,10.8390157 Z" id="Shape"></path>
                        <path d="M95.0992192,0.403201897 L99.7300209,0.403201897 L110.164129,13.2226505 L110.164129,3.36396877 C110.164129,2.31248147 110.045694,1.66024311 109.812773,1.39934776 C109.500894,1.04753434 109.011364,0.869651151 108.340233,0.869651151 L107.748059,0.869651151 L107.748059,0.403201897 L113.689539,0.403201897 L113.689539,0.869651151 L113.085522,0.869651151 C112.363069,0.869651151 111.8538,1.08706394 111.549817,1.52584247 C111.364269,1.79464374 111.273469,2.40735251 111.273469,3.36396877 L111.273469,17.7725072 L110.819469,17.7725072 L99.56816,4.00830122 L99.56816,14.5310801 C99.56816,15.5825674 99.682647,16.2387588 99.9076732,16.4957012 C100.227447,16.8475146 100.716978,17.0253978 101.380213,17.0253978 L101.984231,17.0253978 L101.984231,17.491847 L96.04275,17.491847 L96.04275,17.0253978 L96.6349241,17.0253978 C97.3652722,17.0253978 97.8824376,16.807985 98.1824725,16.3692064 C98.3680204,16.1004052 98.4588205,15.4876964 98.4588205,14.5310801 L98.4588205,2.64453009 C97.965342,2.063445 97.5863505,1.68396087 97.3336896,1.49817176 C97.0770808,1.31238265 96.7020372,1.14240538 96.2085587,0.980334025 C95.9637934,0.905227789 95.5966454,0.865698192 95.0992192,0.865698192 L95.0992192,0.403201897 L95.0992192,0.403201897 Z" id="Path"></path>
                        <path d="M133.345773,6.49075996 L138.631914,6.49075996 L138.631914,6.95720921 C137.901566,7.01650361 137.360714,7.17857496 137.013305,7.44342326 C136.665896,7.70827157 136.121096,8.50676944 135.382852,9.84286985 C134.644608,11.1789703 133.815564,12.4281055 132.891773,13.5863228 C133.637912,14.4599269 134.305095,15.0726356 134.893321,15.4204961 C135.481548,15.7683566 136.073722,15.9422868 136.669844,15.9422868 C137.265966,15.9422868 137.739705,15.7841684 138.142384,15.4679316 C138.545062,15.1516948 138.829306,14.6891985 138.999062,14.0764898 L139.464906,14.4164443 C139.153027,15.6023322 138.655601,16.4759364 137.968679,17.0372566 C137.281757,17.5985769 136.480348,17.88319 135.564452,17.88319 C134.87753,17.88319 134.178765,17.6974009 133.468156,17.3218697 C132.757547,16.9463386 131.983772,16.317818 131.146833,15.4244491 C130.104607,16.3494416 129.168971,16.9898211 128.332032,17.3455875 C127.495092,17.7013539 126.606831,17.8792371 125.655405,17.8792371 C124.269717,17.8792371 123.172221,17.5076589 122.358969,16.7684554 C121.545716,16.0292519 121.13909,15.1477419 121.13909,14.1199723 C121.13909,13.0922028 121.50229,12.088151 122.232638,11.0761933 C122.962986,10.0642356 124.33683,9.01670126 126.350222,7.92963732 C125.95544,7.0560332 125.686987,6.34054748 125.544866,5.7792272 C125.402744,5.21790691 125.331683,4.68425734 125.331683,4.17037257 C125.331683,2.73544817 125.860692,1.63652535 126.91871,0.881510031 C127.739858,0.292519024 128.675493,0 129.725615,0 C130.775737,0 131.537668,0.296471983 132.16932,0.88941595 C132.797025,1.48235992 133.112851,2.20970452 133.112851,3.07540271 C133.112851,3.9411009 132.808868,4.74750469 132.200903,5.41950786 C131.592938,6.09151102 130.515181,6.82676154 128.97158,7.62525941 C130.037493,9.52268011 131.150781,11.2619824 132.307494,12.8431663 C133.783982,11.0801463 134.522226,9.58988042 134.522226,8.38027473 C134.522226,7.99288467 134.395895,7.64897717 134.143234,7.34855223 C133.957686,7.12323352 133.693182,6.98883289 133.349721,6.94535033 L133.349721,6.47890108 L133.345773,6.49075996 Z M130.487546,14.6971045 C129.378206,13.1831209 128.612328,12.0802451 128.185962,11.3805712 C127.759597,10.6848503 127.285858,9.81915209 126.776588,8.78347663 C125.769892,9.36456172 125.011909,10.0009882 124.506587,10.7006621 C123.997317,11.396383 123.744656,12.1553513 123.744656,12.969661 C123.744656,13.8669829 124.032848,14.6575749 124.613178,15.3374839 C125.193509,16.017393 125.971231,16.3573476 126.95424,16.3573476 C127.483249,16.3573476 127.992519,16.2506176 128.482049,16.0411108 C128.97158,15.8316039 129.642711,15.3809665 130.487546,14.6931515 L130.487546,14.6971045 Z M128.537319,6.81885562 C129.575598,6.32473565 130.357267,5.7594624 130.870485,5.13094179 C131.38765,4.50242119 131.644259,3.79879435 131.644259,3.02796719 C131.644259,2.42316434 131.458711,1.92509141 131.083668,1.52979543 C130.708624,1.13449946 130.246728,0.936851468 129.694032,0.936851468 C128.963684,0.936851468 128.410988,1.18984089 128.039893,1.6997727 C127.664849,2.20970452 127.479301,2.70777745 127.479301,3.1939915 C127.479301,3.60509932 127.550362,4.06759561 127.692484,4.57357446 C127.834606,5.07955332 128.114901,5.83061567 128.537319,6.82280858 L128.537319,6.81885562 Z" id="Shape"></path>
                        <path d="M162.208341,0.0118588793 L162.599176,5.82270975 L162.208341,5.82270975 C161.687227,4.08340745 160.945036,2.8303192 159.981766,2.06739796 C159.018496,1.30447673 157.857835,0.921039628 156.507678,0.921039628 C155.374651,0.921039628 154.352164,1.20960569 153.436268,1.78278486 C152.520372,2.35991699 151.801867,3.27700366 151.276806,4.53799783 C150.751745,5.798992 150.491188,7.36436407 150.491188,9.238067 C150.491188,10.7836743 150.739901,12.1237276 151.23338,13.2582271 C151.726858,14.3927266 152.472998,15.2623777 153.46785,15.8671806 C154.462703,16.4719834 155.595729,16.7763613 156.870878,16.7763613 C157.980217,16.7763613 158.955331,16.5391837 159.804114,16.0648285 C160.652897,15.5904734 161.584584,14.645716 162.599176,13.2345093 L162.99001,13.4874988 C162.133332,15.0093883 161.134531,16.12017 159.993609,16.8277498 C158.852687,17.5353296 157.498582,17.887143 155.927347,17.887143 C153.100702,17.887143 150.909658,16.8356557 149.358162,14.7366341 C148.201448,13.1752149 147.621118,11.3331357 147.621118,9.21434924 C147.621118,7.51062358 148.004057,5.94129855 148.765988,4.51428007 C149.527918,3.08726159 150.581988,1.98043285 151.920302,1.19379385 C153.258615,0.407154857 154.719312,0.0158118391 156.306338,0.0158118391 C157.538061,0.0158118391 158.757939,0.320189742 159.958079,0.924992588 C160.309436,1.1107817 160.562096,1.20169977 160.712114,1.20169977 C160.93714,1.20169977 161.134531,1.12264058 161.304288,0.960569226 C161.521419,0.735250519 161.679332,0.419013737 161.770132,0.0158118391 L162.212288,0.0158118391 L162.208341,0.0118588793 Z" id="Path"></path>
                        <path d="M172.689823,0.0118588793 C174.904554,0.0118588793 176.823198,0.853839312 178.449703,2.53780018 C180.072261,4.22176104 180.885513,6.32473565 180.885513,8.84672398 C180.885513,11.3687123 180.068313,13.5981816 178.429964,15.3137662 C176.791616,17.0293507 174.813754,17.88319 172.488484,17.88319 C170.163213,17.88319 168.165612,17.0491155 166.566742,15.3770135 C164.967872,13.7049116 164.170411,11.5426426 164.170411,8.88625358 C164.170411,6.22986461 165.094203,3.95691274 166.937838,2.24528115 C168.540656,0.758968277 170.4593,0.0158118391 172.689823,0.0158118391 L172.689823,0.0118588793 Z M172.449005,0.932898508 C170.921196,0.932898508 169.69737,1.49817176 168.773578,2.63267121 C167.62476,4.04387785 167.048377,6.11127582 167.048377,8.83486511 C167.048377,11.5584544 167.644499,13.7721119 168.836743,15.2742366 C169.752639,16.416642 170.960674,16.9898211 172.460849,16.9898211 C174.063667,16.9898211 175.386189,16.3652535 176.432363,15.1121652 C177.478538,13.859077 177.999651,11.8865501 177.999651,9.18667853 C177.999651,6.26148829 177.423268,4.08340745 176.27445,2.64453009 C175.350659,1.50212472 174.07551,0.928945548 172.449005,0.928945548 L172.449005,0.932898508 Z" id="Shape"></path>
                        <path d="M10.8328389,22.9706493 L10.8328389,28.599664 L10.3906823,28.599664 C10.2485605,27.520506 9.98800384,26.6587607 9.61690804,26.0183813 C9.24581225,25.3780018 8.71680335,24.8720229 8.02988135,24.4925388 C7.34295934,24.1170076 6.63235038,23.9272655 5.89410661,23.9272655 C5.06111499,23.9272655 4.37419299,24.180255 3.8333406,24.6901868 C3.28854039,25.2001186 3.02008812,25.7772507 3.02008812,26.4255361 C3.02008812,26.9236091 3.19379253,27.3742465 3.53725353,27.7814013 C4.03073198,28.3822512 5.21113244,29.1807491 7.07450707,30.1808479 C8.59442069,30.9951576 9.62875153,31.6236782 10.1853952,32.0585038 C10.7420389,32.4933294 11.1684043,33.0072142 11.4684392,33.6001581 C11.7684741,34.1931021 11.9184915,34.8137168 11.9184915,35.4620022 C11.9184915,36.6953256 11.4408044,37.7586718 10.4854301,38.6480878 C9.53005584,39.5414567 8.30228145,39.9881411 6.79815913,39.9881411 C6.32836765,39.9881411 5.88226313,39.9525645 5.46774123,39.8814112 C5.21902809,39.8418816 4.7058105,39.6956221 3.92808847,39.4426327 C3.15036643,39.1896432 2.65688798,39.0631485 2.44765311,39.0631485 C2.23841825,39.0631485 2.0884008,39.1224429 1.9739138,39.2449847 C1.8594268,39.3635735 1.77257459,39.6126099 1.71730501,39.9881411 L1.27514832,39.9881411 L1.27514832,34.4065619 L1.71730501,34.4065619 C1.92653987,35.576638 2.2028878,36.4502421 2.55819229,37.0273742 C2.90954894,37.6084593 3.4464535,38.0907204 4.16890595,38.4741575 C4.8913584,38.8575946 5.68487175,39.0512897 6.549446,39.0512897 C7.54824638,39.0512897 8.3378119,38.7864413 8.91814256,38.2606977 C9.49847322,37.7310011 9.78666463,37.1064334 9.78666463,36.3869948 C9.78666463,35.9877458 9.67612546,35.5845439 9.45504711,35.1734361 C9.23396877,34.7662813 8.89445559,34.3867971 8.42861194,34.0349837 C8.11673355,33.7938531 7.26400279,33.2839213 5.87436748,32.5051883 C4.48473216,31.7264552 3.49382743,31.1018875 2.90560112,30.6393912 C2.3173748,30.176895 1.87127028,29.6630102 1.56728756,29.1016899 C1.26330483,28.5403696 1.11328738,27.9237079 1.11328738,27.2517047 C1.11328738,26.0816286 1.5593919,25.0775768 2.45554877,24.2316434 C3.35170564,23.3857101 4.48867999,22.9666963 5.87041965,22.9666963 C6.73499389,22.9666963 7.64694207,23.1801561 8.61415983,23.6031228 C9.06026435,23.8047238 9.37609056,23.9035478 9.56163846,23.9035478 C9.77087332,23.9035478 9.94062991,23.8403004 10.0709082,23.7177587 C10.2011865,23.5952169 10.3077779,23.3422275 10.3867344,22.9666963 L10.8288911,22.9666963 L10.8328389,22.9706493 Z" id="Path"></path>
                        <path d="M26.7978538,22.9706493 C28.9059937,22.9706493 30.7377857,23.7731001 32.2813863,25.3780018 C33.8289347,26.9829034 34.602709,28.9831011 34.602709,31.3865006 C34.602709,33.7899002 33.8249869,35.9126396 32.265595,37.545212 C30.7062031,39.1777844 28.8191415,39.9920941 26.6083581,39.9920941 C24.3975746,39.9920941 22.4907739,39.1975492 20.9669124,37.6045064 C19.443051,36.0114636 18.6850681,33.9519715 18.6850681,31.4220773 C18.6850681,28.892183 19.5654336,26.729914 21.3222169,25.0973416 C22.8500262,23.682182 24.6739225,22.9746022 26.8018016,22.9746022 L26.7978538,22.9706493 Z M26.5688798,23.8482063 C25.1121314,23.8482063 23.9475222,24.3897618 23.0671567,25.4689199 C21.9736084,26.8129262 21.4248604,28.7815001 21.4248604,31.3746418 C21.4248604,33.9677834 21.9933476,36.0747109 23.1263741,37.5096353 C23.998844,38.5966993 25.1476618,39.1422077 26.5807233,39.1422077 C28.1085325,39.1422077 29.3678895,38.5453108 30.3627421,37.3554699 C31.3575947,36.1616761 31.8550209,34.2840202 31.8550209,31.7145963 C31.8550209,28.9317126 31.3062729,26.8524558 30.2127247,25.4847317 C29.3323591,24.3976678 28.120376,23.8521593 26.5688798,23.8521593 L26.5688798,23.8482063 Z" id="Shape"></path>
                        <path d="M54.2155165,35.1180947 L54.6102992,35.2011068 L53.2206639,39.6165629 L40.6349895,39.6165629 L40.6349895,39.1738314 L41.2469028,39.1738314 C41.9338248,39.1738314 42.4273033,38.9485127 42.7233903,38.5018282 C42.8891991,38.2448859 42.9760513,37.6519419 42.9760513,36.7269493 L42.9760513,26.2239352 C42.9760513,25.2080245 42.8655121,24.571598 42.640486,24.3146556 C42.3286076,23.9628422 41.8667117,23.784959 41.2508506,23.784959 L40.6389374,23.784959 L40.6389374,23.3422275 L47.997688,23.3422275 L47.997688,23.784959 C47.1331138,23.7770531 46.5290961,23.8561123 46.1816873,24.0260895 C45.8342785,24.1960668 45.5974088,24.4055737 45.4671305,24.6625161 C45.3408,24.9194584 45.273687,25.5321672 45.273687,26.5006424 L45.273687,36.7269493 C45.273687,37.3910465 45.3368522,37.8456369 45.4671305,38.0946734 C45.5618784,38.2646507 45.7118958,38.3871924 45.9092872,38.4662516 C46.1106264,38.5453108 46.7304354,38.5848404 47.7805575,38.5848404 L48.9688536,38.5848404 C50.2163671,38.5848404 51.088837,38.4939223 51.594159,38.3081332 C52.0994809,38.1223441 52.5574289,37.7982014 52.9719508,37.3317521 C53.3864727,36.8653029 53.8049424,36.1260994 54.2194643,35.1180947 L54.2155165,35.1180947 Z" id="Path"></path>
                        <path d="M67.3065128,39.1738314 L67.3065128,39.6165629 L60.3425449,39.6165629 L60.3425449,39.1738314 L60.9189278,39.1738314 C61.5900585,39.1738314 62.0795891,38.9761834 62.379624,38.5848404 C62.5730675,38.327898 62.6678154,37.7112363 62.6678154,36.7348552 L62.6678154,26.2199822 C62.6678154,25.3977666 62.6164936,24.8522581 62.5099023,24.5874098 C62.4309457,24.3858089 62.265137,24.2158316 62.0164238,24.0695721 C61.6650672,23.8758771 61.2979192,23.781006 60.9149799,23.781006 L60.3385971,23.781006 L60.3385971,23.3382745 L67.302565,23.3382745 L67.302565,23.781006 L66.7143387,23.781006 C66.0511036,23.781006 65.5655209,23.978654 65.265486,24.369997 C65.0641467,24.6269394 64.9654511,25.2436011 64.9654511,26.2199822 L64.9654511,36.7348552 C64.9654511,37.5610238 65.0167728,38.1025793 65.1194163,38.3674276 C65.1983729,38.5690286 65.3681295,38.7390058 65.6247383,38.8852653 C65.9681993,39.0789604 66.3313994,39.1738314 66.7143387,39.1738314 L67.302565,39.1738314 L67.3065128,39.1738314 Z" id="Path"></path>
                        <path d="M87.2785727,22.9706493 L87.6496685,28.504793 L87.2785727,28.504793 C86.7811464,26.8485028 86.0744853,25.654709 85.1546414,24.9273644 C84.2347976,24.2000198 83.1333537,23.8363475 81.8463619,23.8363475 C80.768605,23.8363475 79.7934915,24.1091017 78.9210216,24.6585631 C78.0485517,25.2080245 77.3655776,26.0816286 76.8642035,27.2833284 C76.3628293,28.4850282 76.1141162,29.975294 76.1141162,31.7620318 C76.1141162,33.2364858 76.3509859,34.5093389 76.8207774,35.5924498 C77.2905688,36.6716079 78.0011778,37.5017294 78.9486564,38.0788615 C79.8961351,38.6559937 80.9778398,38.9445597 82.1898229,38.9445597 C83.2438929,38.9445597 84.1755802,38.719241 84.9848848,38.2646507 C85.7902417,37.8140132 86.6785029,36.9127384 87.6457206,35.5687321 L88.0168164,35.8098626 C87.1996161,37.2566459 86.2521375,38.3199921 85.1625371,38.9919953 C84.0729367,39.6639984 82.7859449,40 81.2897182,40 C78.5972998,40 76.508899,38.9999012 75.0324114,36.9997035 C73.9309675,35.5094377 73.3782717,33.7582765 73.3782717,31.742267 C73.3782717,30.1176006 73.7414718,28.6273347 74.4678721,27.2635636 C75.1942724,25.9037454 76.1970206,24.8483052 77.4721689,24.1011958 C78.7473172,23.3540864 80.1409004,22.9785552 81.6489705,22.9785552 C82.8254231,22.9785552 83.9821366,23.2671213 85.1270066,23.8442534 C85.462572,24.0221366 85.7033895,24.1091017 85.8455113,24.1091017 C86.0626418,24.1091017 86.2481897,24.0339955 86.4100506,23.87983 C86.6192855,23.6624172 86.7653551,23.3619923 86.8522073,22.9785552 L87.270677,22.9785552 L87.2785727,22.9706493 Z" id="Path"></path>
                        <path d="M101.0407,39.1738314 L101.0407,39.6165629 L94.0767318,39.6165629 L94.0767318,39.1738314 L94.6531146,39.1738314 C95.3242453,39.1738314 95.813776,38.9761834 96.1177587,38.5848404 C96.3112022,38.327898 96.4059501,37.7112363 96.4059501,36.7348552 L96.4059501,26.2199822 C96.4059501,25.3977666 96.3546283,24.8522581 96.2519848,24.5874098 C96.1730283,24.3858089 96.0072195,24.2158316 95.7585064,24.0695721 C95.4071497,23.8758771 95.0400017,23.781006 94.6570625,23.781006 L94.0806796,23.781006 L94.0806796,23.3382745 L101.044648,23.3382745 L101.044648,23.781006 L100.456421,23.781006 C99.7931862,23.781006 99.3076034,23.978654 99.0075685,24.369997 C98.8062293,24.6269394 98.7075336,25.2436011 98.7075336,26.2199822 L98.7075336,36.7348552 C98.7075336,37.5610238 98.7588553,38.1025793 98.8654467,38.3674276 C98.9444032,38.5690286 99.1141598,38.7390058 99.3707686,38.8852653 C99.7142296,39.0789604 100.07743,39.1738314 100.460369,39.1738314 L101.048595,39.1738314 L101.0407,39.1738314 Z" id="Path"></path>
                        <path d="M120.436377,23.3422275 L120.617977,27.1607866 L120.163977,27.1607866 C120.077124,26.4887835 119.954742,26.0065224 119.804724,25.7219093 C119.556011,25.259413 119.228341,24.9155055 118.817767,24.6941397 C118.407193,24.472774 117.866341,24.3660441 117.19521,24.3660441 L114.90547,24.3660441 L114.90547,36.8020555 C114.90547,37.8021544 115.012062,38.426722 115.229192,38.6757585 C115.533175,39.0117601 115.999018,39.1817373 116.630671,39.1817373 L117.19521,39.1817373 L117.19521,39.6244688 L110.302303,39.6244688 L110.302303,39.1817373 L110.878686,39.1817373 C111.565608,39.1817373 112.055139,38.9722305 112.339382,38.5571697 C112.517035,38.3002273 112.603887,37.7151892 112.603887,36.8060085 L112.603887,24.369997 L110.649712,24.369997 C109.891729,24.369997 109.350877,24.4253385 109.031103,24.5360213 C108.616581,24.6862338 108.261276,24.9787528 107.965189,25.4135784 C107.669102,25.844451 107.49145,26.4294891 107.43618,27.1647396 L106.98218,27.1647396 L107.175624,23.3461805 L120.44822,23.3461805 L120.436377,23.3422275 Z" id="Path"></path>
                        <path d="M134.352469,22.9706493 C136.460609,22.9706493 138.292401,23.7731001 139.836002,25.3780018 C141.38355,26.9829034 142.157324,28.9831011 142.157324,31.3865006 C142.157324,33.7899002 141.379602,35.9126396 139.82021,37.545212 C138.260818,39.1777844 136.373757,39.9920941 134.162973,39.9920941 C131.95219,39.9920941 130.045389,39.1975492 128.521528,37.6045064 C126.997666,36.0114636 126.239683,33.9519715 126.239683,31.4220773 C126.239683,28.892183 127.120049,26.729914 128.876832,25.0973416 C130.404641,23.682182 132.228538,22.9746022 134.356417,22.9746022 L134.352469,22.9706493 Z M134.123495,23.8482063 C132.670694,23.8482063 131.502137,24.3897618 130.621772,25.4689199 C129.528224,26.8129262 128.979476,28.7815001 128.979476,31.3746418 C128.979476,33.9677834 129.547963,36.0747109 130.680989,37.5096353 C131.553459,38.5966993 132.702277,39.1422077 134.135339,39.1422077 C135.663148,39.1422077 136.922505,38.5453108 137.917357,37.3554699 C138.91221,36.1616761 139.409636,34.2840202 139.409636,31.7145963 C139.409636,28.9317126 138.860888,26.8524558 137.76734,25.4847317 C136.886974,24.3976678 135.674991,23.8521593 134.123495,23.8521593 L134.123495,23.8482063 Z" id="Shape"></path>
                        <path d="M164.288846,39.6165629 L159.950183,39.6165629 L154.446912,32.0071153 C154.040285,32.0229272 153.708668,32.0308331 153.452059,32.0308331 C153.349415,32.0308331 153.234928,32.0308331 153.116494,32.0229272 C152.998059,32.0229272 152.871728,32.0110683 152.745398,32.0031624 L152.745398,36.7309023 C152.745398,37.7547188 152.855937,38.3911454 153.080963,38.6401818 C153.384946,38.9919953 153.838946,39.1698784 154.446912,39.1698784 L155.082512,39.1698784 L155.082512,39.6126099 L148.118544,39.6126099 L148.118544,39.1698784 L148.730457,39.1698784 C149.417379,39.1698784 149.910858,38.9445597 150.206945,38.4978753 C150.372753,38.2488388 150.459606,37.6598478 150.459606,36.7348552 L150.459606,26.2199822 C150.459606,25.1961656 150.349066,24.5597391 150.12404,24.3107026 C149.812162,23.9588892 149.350266,23.781006 148.734405,23.781006 L148.122492,23.781006 L148.122492,23.3382745 L154.044233,23.3382745 C155.769434,23.3382745 157.044582,23.4647692 157.861782,23.7177587 C158.678983,23.9707481 159.377748,24.4332444 159.946235,25.1092005 C160.51867,25.7851566 160.802914,26.5915604 160.802914,27.5284119 C160.802914,28.5285107 160.475244,29.3981619 159.827801,30.1334124 C159.176409,30.8686629 158.165765,31.3904536 156.799817,31.6948315 L160.15547,36.363277 C160.921349,37.4345291 161.580636,38.1460619 162.133332,38.4978753 C162.686028,38.8496887 163.404532,39.0750074 164.292794,39.1698784 L164.292794,39.6126099 L164.288846,39.6165629 Z M152.745398,31.2481471 C152.895415,31.2481471 153.029641,31.2481471 153.140181,31.256053 C153.25072,31.2639589 153.345468,31.2639589 153.416529,31.2639589 C154.968025,31.2639589 156.136582,30.9279573 156.922199,30.2559541 C157.707817,29.583951 158.1026,28.7261587 158.1026,27.6865303 C158.1026,26.6469019 157.786774,25.844451 157.151173,25.2080245 C156.515573,24.571598 155.674686,24.2553612 154.628512,24.2553612 C154.166616,24.2553612 153.538911,24.3304674 152.745398,24.4846329 L152.745398,31.256053 L152.745398,31.2481471 Z" id="Shape"></path>
                        <path d="M179.918295,22.9706493 L179.918295,28.599664 L179.476139,28.599664 C179.330069,27.520506 179.07346,26.6587607 178.702364,26.0183813 C178.331269,25.3780018 177.80226,24.8720229 177.115338,24.4925388 C176.428416,24.1130546 175.717807,23.9272655 174.979563,23.9272655 C174.146571,23.9272655 173.459649,24.180255 172.918797,24.6901868 C172.373997,25.2001186 172.101597,25.7772507 172.101597,26.4255361 C172.101597,26.9236091 172.275301,27.3742465 172.618762,27.7814013 C173.11224,28.3822512 174.292641,29.1807491 176.156016,30.1808479 C177.675929,30.9951576 178.71026,31.6236782 179.266904,32.0585038 C179.823547,32.4933294 180.249913,33.0072142 180.549948,33.6001581 C180.849983,34.1931021 181,34.8137168 181,35.4620022 C181,36.6953256 180.522313,37.7586718 179.566939,38.6480878 C178.611564,39.5414567 177.38379,39.9881411 175.879668,39.9881411 C175.409876,39.9881411 174.963772,39.9525645 174.54925,39.8814112 C174.300537,39.8418816 173.787319,39.6956221 173.009597,39.4426327 C172.231875,39.1896432 171.738396,39.0631485 171.529162,39.0631485 C171.319927,39.0631485 171.169909,39.1224429 171.055422,39.2449847 C170.940935,39.3635735 170.854083,39.6126099 170.798813,39.9881411 L170.356657,39.9881411 L170.356657,34.4065619 L170.798813,34.4065619 C171.008048,35.576638 171.284396,36.4502421 171.639701,37.0273742 C171.991057,37.6084593 172.527962,38.0907204 173.250414,38.4741575 C173.972867,38.8575946 174.76638,39.0512897 175.630954,39.0512897 C176.629755,39.0512897 177.41932,38.7864413 177.999651,38.2606977 C178.579982,37.7310011 178.868173,37.1064334 178.868173,36.3869948 C178.868173,35.9877458 178.757634,35.5845439 178.540503,35.1734361 C178.319425,34.7662813 177.979912,34.3867971 177.514068,34.0349837 C177.20219,33.7938531 176.349459,33.2839213 174.959824,32.5051883 C173.570188,31.7264552 172.579284,31.1018875 171.991057,30.6393912 C171.402831,30.176895 170.956727,29.6630102 170.652744,29.1016899 C170.348761,28.5403696 170.198744,27.9237079 170.198744,27.2517047 C170.198744,26.0816286 170.644848,25.0775768 171.541005,24.2316434 C172.437162,23.3857101 173.574136,22.9666963 174.955876,22.9666963 C175.82045,22.9666963 176.732398,23.1801561 177.699616,23.6031228 C178.145721,23.8047238 178.461547,23.9035478 178.647095,23.9035478 C178.85633,23.9035478 179.026086,23.8403004 179.156365,23.7177587 C179.286643,23.5952169 179.393234,23.3422275 179.472191,22.9666963 L179.914347,22.9666963 L179.918295,22.9706493 Z" id="Path"></path>
                    </g>
                </g>
            </g>
        </g>
    </g>
</svg>